<svg xmlns="http://www.w3.org/2000/svg"  version="1.1" xmlns:xlink="http://www.w3.org/1999/xlink" xmlns:svgjs="http://svgjs.dev/svgjs" width="2000" height="767" viewBox="0 0 2000 767"><g transform="matrix(1,0,0,1,-1.2121212121212466,-1.5104787724829976)"><svg viewBox="0 0 396 152" data-background-color="#ffffff" preserveAspectRatio="xMidYMid meet" height="767" width="2000" xmlns="http://www.w3.org/2000/svg" xmlns:xlink="http://www.w3.org/1999/xlink"><g id="tight-bounds" transform="matrix(1,0,0,1,0.2400000000000091,0.2993386876367907)"><svg viewBox="0 0 395.52 151.40132262472642" height="151.40132262472642" width="395.52"><g><svg viewBox="0 0 669.2128497449312 256.16836207737884" height="151.40132262472642" width="395.52"><g transform="matrix(1,0,0,1,273.69284974493115,66.10945733756954)"><svg viewBox="0 0 395.52 123.94944740223977" height="123.94944740223977" width="395.52"><g id="textblocktransform"><svg viewBox="0 0 395.52 123.94944740223977" height="123.94944740223977" width="395.52" id="textblock"><g><svg viewBox="0 0 395.52 123.94944740223977" height="123.94944740223977" width="395.52"><g transform="matrix(1,0,0,1,0,0)"><svg width="395.52" viewBox="1.4 -34.08 136.16 42.68" height="123.94944740223977" data-palette-color="#111111"><path d="M17.07 0L10.5 0 10.5-30.73 17.07-30.73 17.07 0ZM26.13-26.48L1.4-26.48 1.4-31.95 26.13-31.95 26.13-26.48ZM36.55-14.25L36.55-14.25 34.92-18.53 36.47-18.53Q37.15-21.5 38.92-23.2 40.7-24.9 43.85-24.9L43.85-24.9Q44.5-24.9 45.02-24.81 45.55-24.73 45.97-24.6L45.97-24.6 46.32-18.2Q45.77-18.38 45.05-18.46 44.32-18.55 43.52-18.55L43.52-18.55Q40.97-18.55 39.19-17.43 37.4-16.3 36.55-14.25ZM36.72 0L30.32 0 30.32-24.53 36.42-24.53 36.15-17 36.72-16.78 36.72 0ZM56.15 0L49.75 0 49.75-24.53 56.15-24.53 56.15 0ZM52.95-27.43L52.95-27.43Q51.12-27.43 50.26-28.29 49.4-29.15 49.4-30.68L49.4-30.68 49.4-30.8Q49.4-32.33 50.26-33.2 51.12-34.08 52.95-34.08L52.95-34.08Q54.75-34.08 55.62-33.2 56.5-32.33 56.5-30.8L56.5-30.8 56.5-30.68Q56.5-29.13 55.62-28.28 54.75-27.43 52.95-27.43ZM75.77 0.58L75.77 0.58Q73.57 0.58 72.04-0.14 70.52-0.85 69.58-2.15 68.64-3.45 68.24-5.2L68.24-5.2 66.42-5.2 68.04-10.1Q68.09-8.35 68.76-7.15 69.42-5.95 70.61-5.35 71.79-4.75 73.39-4.75L73.39-4.75Q75.82-4.75 77.09-6.16 78.37-7.58 78.37-10.35L78.37-10.35 78.37-14.38Q78.37-17.13 77.12-18.53 75.87-19.93 73.42-19.93L73.42-19.93Q72.02-19.93 70.89-19.39 69.77-18.85 69.02-17.95 68.27-17.05 67.94-15.88L67.94-15.88 66.44-19.33 68.22-19.33Q68.62-20.93 69.51-22.24 70.39-23.55 71.98-24.31 73.57-25.08 75.99-25.08L75.99-25.08Q80.32-25.08 82.57-22.29 84.82-19.5 84.82-14.05L84.82-14.05 84.82-10.65Q84.82-5.15 82.56-2.29 80.29 0.58 75.77 0.58ZM68.14 8.6L61.77 8.6 61.77-24.53 68.17-24.53 67.92-18.3 68.04-17.18 68.04-7.35 67.97-6.2 68.14 0.53 68.14 8.6ZM99.12-5.3L102.54-5.3 99.12-3.83 105.24-24.53 111.82-24.53 101.29 8.6 94.87 8.6 98.72-3.45 101.69-1.05 94.54-1.05 87.42-24.53 94.04-24.53 99.12-5.3ZM124.86-5.3L128.29-5.3 124.86-3.83 130.99-24.53 137.56-24.53 127.04 8.6 120.61 8.6 124.46-3.45 127.44-1.05 120.29-1.05 113.16-24.53 119.79-24.53 124.86-5.3Z" opacity="1" transform="matrix(1,0,0,1,0,0)" fill="#111111" class="wordmark-text-0" data-fill-palette-color="primary" id="text-0"></path></svg></g></svg></g></svg></g></svg></g><g><svg viewBox="0 0 244.43135999999998 256.16836207737884" height="256.16836207737884" width="244.43135999999998"><g><svg xmlns="http://www.w3.org/2000/svg" xmlns:xlink="http://www.w3.org/1999/xlink" version="1.1" x="0" y="0" viewBox="15.989575904190284 10.31 67.92218061912392 71.18363927576586" enable-background="new 0 0 100 100" xml:space="preserve" height="256.16836207737884" width="244.43135999999998" class="icon-icon-0" data-fill-palette-color="accent" id="icon-0"><g fill="#fe5200" data-fill-palette-color="accent"><path d="M68.942 17.667L68.841 17.51C68.843 17.583 68.887 17.633 68.942 17.667" fill="#fe5200" data-fill-palette-color="accent"></path><path d="M62.122 50.63C64.32 48.189 66.063 45.292 68.601 43.19 68.753 41.359 70.011 42.164 69.561 40.55 70.278 40.206 70.377 40.746 71.001 40.31 70.357 38.73 72.069 38.728 71.721 37.19 72.376 37.169 72.204 37.59 72.681 37.19 73.057 35.462 75.311 33.207 75.081 30.23 75.398 30.233 75.3 30.651 75.56 30.71 79.801 21.186 72.723 11.477 63.32 10.31H60.921C56.65 10.789 53.711 12.9 51.081 15.59 49.279 18.841 47.337 22.371 47.961 26.63 49.273 35.581 58.1 44.373 62.122 50.63M51.321 22.79C52.338 16.23 60.776 11.473 67.641 15.83 67.066 17.181 68.781 16.359 69.321 17.51 69.28 17.72 69.07 17.747 68.942 17.667 69.542 18.606 70.329 19.895 71.242 20.149 71.214 21.069 71.638 24.156 72.681 25.909 71.364 25.569 71.943 27.307 71.242 29.269 70.714 30.745 69.012 34.108 68.122 35.749 67.566 36.774 66.417 38.627 65.962 39.349 65.924 39.409 65.561 38.998 65.482 39.109 64.255 40.829 63.481 42.922 62.362 44.389 60.805 43.653 59.956 41.445 58.522 39.589 55.638 35.854 50.269 29.588 51.321 22.79" fill="#fe5200" data-fill-palette-color="accent"></path><path d="M64.042 29.99C66.697 28.938 67.878 24.244 66.719 21.449 66.778 21.526 66.889 21.548 66.922 21.349 66.734 21.296 66.643 21.148 66.682 20.869 65.056 19.55 62.304 18.304 59.722 19.429 54.05 21.901 55.984 31.9 64.042 29.99M59.962 24.95C60.773 24.481 61.631 24.059 62.842 23.99 63.526 24.439 63.526 26.421 62.842 26.87 61.196 26.915 60.011 26.501 59.962 24.95" fill="#fe5200" data-fill-palette-color="accent"></path><path d="M77.722 31.43C76.897 31.325 76.377 31.525 75.802 31.67 75.282 35.417 78.225 37.291 79.402 40.79 81.08 45.776 80.94 55.482 78.203 60.23 78.131 62.226 76.192 64.542 74.756 66.163 74.856 66.094 74.961 66.094 75.083 66.23 73.86 67.404 72.867 70.491 71.723 69.349 71.455 69.907 71.775 69.992 71.244 70.549 67.677 70.873 67.583 74.482 64.764 74.629 65.07 74.295 65.94 74.525 65.964 73.909 63.777 75.163 61.103 75.929 59.004 77.269 57.105 75.581 53.975 78.471 52.284 77.029 47.341 77.409 43.22 75.694 38.844 73.909 38.532 73.346 38.966 73.372 38.364 72.949 35.513 71.591 33.084 70.003 31.644 68.149 32.134 68.219 32.115 68.798 32.604 68.869 31.73 66.782 29.023 65.252 29.004 63.109 35.647 62.392 41.949 61.335 47.244 59.269 46.522 60.485 46.472 62.002 47.004 63.588 50.66 65.457 51.576 61.67 52.764 59.028 53.406 57.6 54.879 55.213 54.684 53.988 54.436 52.432 52.622 52.366 51.564 51.588 49.549 50.107 46.878 46.2 44.604 46.548 43.616 46.699 42.64 47.839 42.684 48.948 42.777 51.295 47.13 52.345 48.204 54.228 41.555 56.481 34.926 58.817 26.124 58.308 26.214 56.259 25.114 54.317 24.924 52.308 24.311 45.831 26.919 39.542 28.764 36.227 32.528 29.467 39.623 25.031 46.284 22.547 46.781 21.199 46.142 20.116 45.324 19.427 41.38 19.18 38.371 22.489 35.964 23.507 34.2 24.253 32.971 25.098 31.644 26.387 25.501 32.353 21.1 40.052 21.322 51.35 18.824 52.812 15.534 54.628 16.042 57.83 16.478 60.58 19.951 61.496 23.242 61.91 28.509 71.415 35.273 79.277 47.722 81.11 76.868 85.401 93.742 52.729 77.722 31.43M19.162 56.87C20.012 56.395 20.846 56.482 21.562 56.63 21.508 57.484 21.724 58.068 22.282 58.311 21.311 58.714 19.332 58.065 19.162 56.87" fill="#fe5200" data-fill-palette-color="accent"></path><path d="M74.562 66.379C74.2 66.785 73.877 67.144 73.641 67.43 74.063 67.405 74.314 66.756 74.562 66.379" fill="#fe5200" data-fill-palette-color="accent"></path></g></svg></g></svg></g></svg></g><defs></defs></svg><rect  fill="none" stroke="none" visibility="hidden"></rect></g></svg></g></svg>